<svg xmlns="http://www.w3.org/2000/svg" width="140.51" height="200" viewBox="0 0 140.51 200"><path d="M87.887,263.267a70.324,70.324,0,0,0-70.258,70.251c0,10.481,4.535,23.108,11,36.816A404.754,404.754,0,0,0,52.154,412.16c17.035,26.963,34.05,49.322,34.05,49.322a4.526,4.526,0,0,0,7.275-.1s16.052-22.361,32.12-49.322a412.131,412.131,0,0,0,22.179-41.82c6.1-13.7,10.361-26.322,10.361-36.723a70.319,70.319,0,0,0-70.252-70.252Zm0,9.052a61.128,61.128,0,0,1,61.2,61.2c0,7.75-3.713,19.86-9.58,33.042a404.931,404.931,0,0,1-21.685,40.871c-12.985,21.788-23.864,37.438-28.125,43.5-4.456-5.974-16.071-21.716-29.9-43.6a397.587,397.587,0,0,1-22.987-40.858C30.6,353.3,26.681,341.188,26.681,333.518A61.133,61.133,0,0,1,87.887,272.318Zm0,17.817a40.029,40.029,0,1,0,40.029,40.029A40.1,40.1,0,0,0,87.887,290.135Zm0,9.052A30.977,30.977,0,1,1,56.91,330.165,30.908,30.908,0,0,1,87.887,299.187Z" transform="translate(-17.629 -263.266)"/></svg>