<svg xmlns="http://www.w3.org/2000/svg" width="20" height="20" viewBox="0 0 200 200"><path d="M100,0A100,100,0,1,0,200,100,100,100,0,0,0,100,0ZM92.957,11.572V33.8h14.087V11.572a88.712,88.712,0,0,1,81.384,81.384H166.2v14.087h22.229a88.713,88.713,0,0,1-81.384,81.39V166.2H92.957V188.44a88.716,88.716,0,0,1-81.39-81.4H33.8V92.957H11.566a88.716,88.716,0,0,1,81.39-81.384ZM48.48,37.9S83.936,97.579,88.2,103.2a19.294,19.294,0,0,0,4.688,4.419,8.253,8.253,0,0,0,5.9,2.087c.188,0,.38-.006.568-.018.259-.025.513-.09.775-.14a4.859,4.859,0,0,0,.671-.146c.128-.031.256-.048.385-.085,4.4-1.4,54.565-25.562,54.565-25.562s-43.076,7.693-55.292,9.924C95.586,87.433,48.48,37.9,48.48,37.9Z"/></svg>